<svg width="340" height="260" viewBox="0 0 340 260" fill="none" xmlns="http://www.w3.org/2000/svg">
  <rect x="1" y="1" width="338" height="258" rx="14" fill="#05070D" stroke="#1B2230"/>
  <circle cx="82" cy="50" r="1.4" fill="#BFC7D5"/>
  <circle cx="132" cy="34" r="1.2" fill="#A8B1C3"/>
  <circle cx="225" cy="42" r="1.3" fill="#D7DFED"/>
  <circle cx="290" cy="68" r="1.1" fill="#BFC7D5"/>
  <circle cx="266" cy="29" r="1.5" fill="#A855F7"/>

  <g transform="translate(92 52)">
    <ellipse cx="78" cy="26" rx="44" ry="26" fill="#E5ECF7"/>
    <ellipse cx="78" cy="26" rx="35" ry="20" fill="#0C1220"/>
    <circle cx="68" cy="24" r="2.6" fill="#9EC5FF"/>
    <circle cx="88" cy="24" r="2.6" fill="#9EC5FF"/>
    <path d="M69 34C74 38 82 38 87 34" stroke="#9EC5FF" stroke-width="2" stroke-linecap="round"/>

    <rect x="57" y="49" width="42" height="28" rx="10" fill="#DEE6F3"/>
    <rect x="49" y="74" width="58" height="40" rx="12" fill="#E8EEF8"/>
    <rect x="43" y="84" width="10" height="24" rx="5" fill="#D4DDEA"/>
    <rect x="103" y="84" width="10" height="24" rx="5" fill="#D4DDEA"/>
    <rect x="59" y="114" width="11" height="30" rx="5" fill="#D4DDEA"/>
    <rect x="86" y="114" width="11" height="30" rx="5" fill="#D4DDEA"/>
    <rect x="70" y="86" width="16" height="10" rx="5" fill="#A855F7"/>
    <path d="M115 87C129 87 135 79 141 67" stroke="#4C92FF" stroke-width="3" stroke-linecap="round"/>
    <circle cx="143" cy="64" r="5" fill="#4C92FF"/>
  </g>

  <text x="170" y="236" fill="#A8B1C3" font-family="Segoe UI, Arial, sans-serif" font-size="12" text-anchor="middle">astronaut mode: on</text>
</svg>